<svg xmlns="http://www.w3.org/2000/svg" viewBox="0 0 294 294"><defs><style>.cls-1{fill:transparent;}.cls-14,.cls-15,.cls-2{fill:none;}.cls-3{fill:#956643;}.cls-12,.cls-4,.cls-7,.cls-8,.cls-9{fill:#fff;}.cls-10,.cls-4{opacity:0.05;}.cls-14,.cls-4,.cls-6,.cls-7,.cls-9{isolation:isolate;}.cls-5{fill:#f6d6c4;}.cls-11,.cls-6{fill:#4e4039;}.cls-18,.cls-6,.cls-9{opacity:0.1;}.cls-7{opacity:0.15;}.cls-12{stroke:#d4695c;}.cls-12,.cls-14,.cls-15{stroke-linecap:round;stroke-linejoin:round;stroke-width:4px;}.cls-13,.cls-14{opacity:0.5;}.cls-14{stroke:#f3c9ad;}.cls-15{stroke:#4e4039;}.cls-16{fill:#f5d3be;}.cls-17{fill:#f2f2f2;}.cls-19{fill:#82858d;}.cls-20{fill:#e0c46e;}</style></defs><title>Artboard 1</title><g id="Layer_2" data-name="Layer 2"><rect class="cls-1" width="294" height="294"/></g><g id="Layer_1" data-name="Layer 1"><rect class="cls-2" y="27" width="294" height="294"/><g id="Hair_-_Back" data-name="Hair - Back"><g id="_3" data-name=" 3"><g id="Light_Brown" data-name="Light Brown"><path class="cls-3" d="M207.23,149.51l1-10.61H86.52l-1,10.61V253.9H207.23V223.3C207.34,223.35,207.23,149.51,207.23,149.51Z"/></g><g id="Highlights"><rect class="cls-4" x="196.23" y="142.9" width="8" height="94"/><rect class="cls-4" x="105.23" y="155.9" width="8" height="82"/><polygon class="cls-4" points="97.23 234.9 101.23 236.9 101.23 142.9 97.23 140.9 97.23 234.9"/></g></g></g><g id="Neck_Body" data-name="Neck Body"><g id="Pale"><path class="cls-5" d="M201.53,233.28,170.23,226V195.06a1.11,1.11,0,0,0-1-1.16h-44a1.11,1.11,0,0,0-1,1.16V225.9l-30.52,6.17a28,28,0,0,0-14.42,7.8h0a28.1,28.1,0,0,0-7.89,16.26l-4.61,37.1a152.08,152.08,0,0,0,159.93,1.84l-4-37.79A27.59,27.59,0,0,0,215,240.87h0A27.59,27.59,0,0,0,201.53,233.28Z"/><path class="cls-6" d="M170.23,200.06a1.11,1.11,0,0,0-1-1.16h-44a1.11,1.11,0,0,0-1,1.16v7.32c6.89,5.62,20.68,10.93,46,11.47Z"/></g></g><g id="Clothes"><g id="T_Shirt" data-name="T Shirt"><path class="cls-7" d="M144.41,261.3h0a25.75,25.75,0,0,1-3.51-.22,26.61,26.61,0,0,0,7.48,1h0c11.87-.07,22.42-8,26.41-19.95l4.86-14.55-4-.94-4.92,14.74C166.74,253.29,156.23,261.23,144.41,261.3Z"/><path class="cls-8" d="M93.73,306.9c25.68,9.08,46.45,11.45,63,10.75.77,0,1.54-.07,2.3-.12h.17c3.25-.23,6.47-.57,9.66-1,18.15-2.62,25.73-6.91,32-8.9L199,283.17a3.43,3.43,0,0,1,3-3.67l23.81-4.93L224,257.33a28.08,28.08,0,0,0-21.57-24.41l-22.77-5.29-4.87,14.6c-4,11.91-14.54,19.88-26.41,20h0a26.61,26.61,0,0,1-7.48-1,29.06,29.06,0,0,1-19.5-19.76L117,226.91l-24,4.85a29.08,29.08,0,0,0-14.84,8h0a28,28,0,0,0-8,16.34l-2.31,18.55,25,2.54A3.46,3.46,0,0,1,96,280.92Z"/><path class="cls-9" d="M77.68,259.48a28.5,28.5,0,0,1,8-16.53h0A28.5,28.5,0,0,1,100.34,235l18.09-3.66L117,226.64l-24.16,4.89a28.53,28.53,0,0,0-14.61,7.92h0a28.5,28.5,0,0,0-8,16.53l-2.29,18.37,7.84.8Z"/><path class="cls-9" d="M198.85,283.77l.13-.12,1.75,24.08c-2.78.86-5.2,2.68-7.88,3.42l.15-18.66C193.09,288.86,195.63,286,198.85,283.77Z"/></g></g><g id="Face"><g id="_1" data-name=" 1"><g id="Pale-2"><path class="cls-5" d="M169.58,201.91l-5.76,3a38.9,38.9,0,0,1-36.38-.45l-4-2.2c-19.91-10.92-32.21-27.73-32.21-49.92V104.73a45.23,45.23,0,0,1,29.91-42.22l8.06-3a47.74,47.74,0,0,1,32.35-.28l10,3.54a45.29,45.29,0,0,1,30.63,42.52V152.8C202.23,174.91,189.67,191.56,169.58,201.91Z"/><g class="cls-10"><path class="cls-11" d="M201.67,91.89a45.42,45.42,0,0,0-9.78-15.61,69.47,69.47,0,0,1,.44,7.76l2.41,59a78.28,78.28,0,0,1-31.3,62.34c.49-.23,1-.46,1.48-.71l4.5-2.31a63.69,63.69,0,0,0,35-56.47v-40A37.69,37.69,0,0,0,201.67,91.89Z"/></g></g></g></g><g id="Mouth"><g id="_29" data-name=" 29"><path class="cls-12" d="M126,176.53a.85.85,0,0,0-1.14.42h0a.83.83,0,0,0,0,.81,26,26,0,0,0,44.74,0,.88.88,0,0,0-.3-1.21h0a.83.83,0,0,0-.81,0A52.46,52.46,0,0,1,126,176.53Z"/></g></g><g id="Facial_Hair_Freckles_Make_up" data-name="Facial Hair Freckles Make up"><g id="Cheeks_2" data-name="Cheeks 2"><g class="cls-13"><path class="cls-14" d="M129.63,155.07s-.4,10.83-21.8,7.84"/><path class="cls-14" d="M165.83,155.07s.4,10.83,21.8,7.84"/></g></g></g><g id="Nose"><g id="_5" data-name=" 5"><path class="cls-15" d="M140,153l-1.78,6.27a1.14,1.14,0,0,0,1.13,1.15h.31l1.12-.28a4.7,4.7,0,0,1,4.44,1.13l.37.36a2.62,2.62,0,0,0,3.43.25l1.35-1a4.72,4.72,0,0,1,4.31-.69h0a1.16,1.16,0,0,0,1.46-.73h0a1.13,1.13,0,0,0,.06-.36L154.43,153"/></g><g id="_21" data-name=" 21"><g id="Light"><path class="cls-16" d="M152.63,149.86V135.72a5.4,5.4,0,1,0-10.8,0v14.14a5.39,5.39,0,0,0,.45,10.76c2.95,3.28,6.95,3.28,9.9,0h0a5.39,5.39,0,0,0,.45-10.76Z"/></g></g></g><g id="Eyes"><g id="_39" data-name=" 39"><path class="cls-15" d="M132.28,134.64a14.71,14.71,0,0,0-12.9-8.41,13.23,13.23,0,0,0-12.63,7.56"/><path class="cls-11" d="M126.07,131.23a5.44,5.44,0,1,1-5.85-5h0a5.43,5.43,0,0,1,5.84,5Z"/><path class="cls-17" d="M128.17,130.23a1.88,1.88,0,1,1-2-1.73h0A1.87,1.87,0,0,1,128.17,130.23Z"/><path class="cls-15" d="M162.23,135A14.74,14.74,0,0,1,175,126.23a13.21,13.21,0,0,1,12.82,7.22"/><path class="cls-11" d="M168.39,131.43a5.44,5.44,0,1,0,5.7-5.17,5.44,5.44,0,0,0-5.7,5.17Z"/><path class="cls-17" d="M175.81,129.07a1.88,1.88,0,0,0,3.76.17h0a1.88,1.88,0,1,0-3.76-.21Z"/></g></g><g id="Eye_Brows" data-name="Eye Brows"><g id="_1-2" data-name=" 1-2"><g id="Light_Brown-2" data-name="Light Brown-2"><path class="cls-3" d="M132.45,115.69a1.8,1.8,0,0,1-.89.08c-16.9-3.11-27.25,4.91-27.35,5a2.19,2.19,0,0,1-2.61.27c-.61-.59.23-1.18.86-1.75.47-.43,10.85-10.81,29.35-7.41a1.5,1.5,0,0,1,1.24,1.72h0C132.93,114.17,132.93,115.5,132.45,115.69Z"/><path class="cls-3" d="M164,115.69a1.8,1.8,0,0,0,.89.08c16.9-3.11,27.25,4.91,27.35,5a2.19,2.19,0,0,0,2.61.27c.61-.59-.23-1.18-.86-1.75-.47-.43-10.85-10.81-29.35-7.41a1.5,1.5,0,0,0-1.24,1.72h0C163.53,114.17,163.53,115.5,164,115.69Z"/></g></g><g id="_15" data-name=" 15"><g id="Light_Brown-3" data-name="Light Brown-3"><path class="cls-3" d="M191.5,120.14a1.64,1.64,0,0,1-.86-.24c-14.7-8.91-27.22-5.07-27.35-5-.8.31-2.19.09-2.54-.68s.63-1,1.43-1.33c.59-.23,14-6.25,30.06,3.49a1.5,1.5,0,0,1,.56,2h0C192.48,118.89,192,120.14,191.5,120.14Z"/><path class="cls-3" d="M103.92,120a1.65,1.65,0,0,0,.87-.24c14.75-8.8,27.25-4.88,27.38-4.83.79.33,2.19.11,2.54-.65s-.62-1-1.42-1.34c-.58-.24-13.93-6.36-30.09,3.28a1.5,1.5,0,0,0-.56,2h0C103,118.78,103.41,120,103.92,120Z"/></g></g></g><g id="Ears"><g id="Pale-3"><path class="cls-5" d="M83.23,127.29a10.85,10.85,0,0,0-3,7.48V138A10.9,10.9,0,0,0,91.11,148.9h1.12v-25H91.11A10.79,10.79,0,0,0,83.23,127.29Z"/><path class="cls-5" d="M210,146.38a10.82,10.82,0,0,0,3.2-7.69v-3.25a10.91,10.91,0,0,0-10.92-10.88h-1.12v25h1.12A10.79,10.79,0,0,0,210,146.38Z"/><g class="cls-18"><path class="cls-11" d="M92.23,141.9v-10a5,5,0,1,0,0,10Z"/></g><g class="cls-18"><path class="cls-11" d="M202,141.9v-10a5,5,0,0,1,0,10Z"/></g></g></g><g id="Hair_-_Front_Top" data-name="Hair - Front Top"><g id="_18" data-name=" 18"><g id="Shadow"><path class="cls-6" d="M202.32,124.83v-3.47a20,20,0,0,0-1.09-6.73A25.69,25.69,0,0,0,192.69,103c-6.39-5-23.2-15.66-27.77-34.73-6.5,9.07-36.18,49.62-70.4,73.62-1.3,2.81-1.64,3-3.53,5.5l-.25.25c38-19.87,67.47-62,74.25-71.5,4.57,19.06,21.31,27.2,27.7,32.19A25.71,25.71,0,0,1,201.23,120a19.94,19.94,0,0,1,1.1,6.72Z"/></g><g id="Gray"><path class="cls-19" d="M209.12,97c0-1.72-.09-3.43-.22-5.12l-.37-8.61a56.18,56.18,0,0,0-17.4-38.3h0a28.09,28.09,0,0,0-23.47-7.42,60.39,60.39,0,0,0-14.1-3.18,57.28,57.28,0,0,0-6-.32h-1.87a55.57,55.57,0,0,0-5.91.31c-27.72,2.82-49.4,24-54.51,50.58-.28,1.45-.5,22.9-.68,24.38a8.45,8.45,0,0,1-8.36,7.47,10.58,10.58,0,0,0,4.59,8.57,6.17,6.17,0,0,0,5.62.67c.63-.23,1.29-.46,1.84-.64v2.26a43.15,43.15,0,0,1-8.7,26.62h0c38-19.87,78.9-75.48,85.68-84.95C169.84,88.35,185.64,98,192,103a25.94,25.94,0,0,1,8.54,11.62,20.28,20.28,0,0,1,1.09,6.73v11.87a4,4,0,0,0,4-3.72l.26-4.15a10,10,0,0,1,3.68,2.16Z"/></g><g id="Light_Brown-4" data-name="Light Brown-4"><path class="cls-3" d="M209.12,97c0-1.72-.09-3.43-.22-5.12l-.37-8.61a56.18,56.18,0,0,0-17.4-38.3h0a28.09,28.09,0,0,0-23.47-7.42,60.39,60.39,0,0,0-14.1-3.18,57.28,57.28,0,0,0-6-.32h-1.87a55.57,55.57,0,0,0-5.91.31c-27.72,2.82-49.4,24-54.51,50.58-.28,1.45-.5,22.9-.68,24.38a8.45,8.45,0,0,1-8.36,7.47,10.58,10.58,0,0,0,4.59,8.57,6.17,6.17,0,0,0,5.62.67c.63-.23,1.29-.46,1.84-.64v2.26a43.15,43.15,0,0,1-8.7,26.62h0c38-19.87,78.9-75.48,85.68-84.95C169.84,88.35,185.64,98,192,103a25.94,25.94,0,0,1,8.54,11.62,20.28,20.28,0,0,1,1.09,6.73v11.87a4,4,0,0,0,4-3.72l.26-4.15a10,10,0,0,1,3.68,2.16Z"/></g><g id="Highlights-2"><g class="cls-18"><path class="cls-8" d="M151.34,43.36c2.33-.23,4.65-.36,6.94-.36h2.19c.92,0,1.84,0,2.76.08A55,55,0,0,0,152.83,41a52.79,52.79,0,0,0-5.48-.28h-1.7a51.07,51.07,0,0,0-5.39.28c-25.27,2.57-45,21.89-49.68,46.11-.08.38-.15,2.28-.21,4.83C99.56,66,122.7,46.29,151.34,43.36Z"/></g><path class="cls-9" d="M98.71,124.39c.52,3.49-3.77,12.6-5.48,14.84,0,0,42.9-39,49.27-52.2-.6-1.36,3-8.49,2.66-10C135.56,88.94,119.64,111.15,98.71,124.39Z"/></g></g></g><g id="Accessories"><g id="Earrings"><polygon class="cls-20" points="209.76 150.86 204.65 159.38 199.54 150.86 204.65 145.75 209.76 150.86"/><polygon class="cls-20" points="94.26 150.86 89.15 159.38 84.04 150.86 89.15 145.75 94.26 150.86"/></g></g></g></svg>
